<svg width="344" height="548" viewBox="0 0 344 548" fill="none" xmlns="http://www.w3.org/2000/svg">
<path d="M52.24 8.064C53.904 8.896 54.864 10.208 55.12 12C55.44 13.792 54.992 15.424 53.776 16.896C52.944 18.048 51.856 18.688 50.512 18.816C49.232 18.944 47.92 18.688 46.576 18.048C45.04 17.344 43.408 16.8 41.68 16.416C40.016 16.032 38.256 15.84 36.4 15.84C32.944 15.84 29.84 16.384 27.088 17.472C24.4 18.56 22.096 20.128 20.176 22.176C18.256 24.16 16.784 26.528 15.76 29.28C14.8 32.032 14.32 35.072 14.32 38.4C14.32 42.304 14.864 45.696 15.952 48.576C17.104 51.456 18.672 53.856 20.656 55.776C22.64 57.696 24.976 59.136 27.664 60.096C30.352 60.992 33.264 61.44 36.4 61.44C38.128 61.44 39.856 61.28 41.584 60.96C43.312 60.64 44.976 60.064 46.576 59.232C47.92 58.592 49.232 58.368 50.512 58.56C51.856 58.752 52.976 59.424 53.872 60.576C55.152 62.176 55.6 63.84 55.216 65.568C54.896 67.232 53.936 68.448 52.336 69.216C50.672 70.048 48.944 70.752 47.152 71.328C45.424 71.84 43.664 72.224 41.872 72.48C40.08 72.8 38.256 72.96 36.4 72.96C31.792 72.96 27.408 72.224 23.248 70.752C19.152 69.28 15.472 67.104 12.208 64.224C9.008 61.344 6.48 57.76 4.624 53.472C2.768 49.12 1.84 44.096 1.84 38.4C1.84 33.472 2.672 28.928 4.336 24.768C6.064 20.608 8.464 17.024 11.536 14.016C14.672 10.944 18.352 8.576 22.576 6.912C26.8 5.184 31.408 4.32 36.4 4.32C39.216 4.32 41.968 4.64 44.656 5.27999C47.344 5.91999 49.872 6.848 52.24 8.064ZM122.252 46.368C122.252 51.616 121.068 56.256 118.7 60.288C116.396 64.256 113.26 67.36 109.292 69.6C105.388 71.84 101.004 72.96 96.1395 72.96C91.2755 72.96 86.8595 71.84 82.8915 69.6C78.9875 67.36 75.8515 64.256 73.4835 60.288C71.1795 56.256 70.0275 51.616 70.0275 46.368C70.0275 41.12 71.1795 36.512 73.4835 32.544C75.8515 28.512 78.9875 25.376 82.8915 23.136C86.8595 20.832 91.2755 19.68 96.1395 19.68C101.004 19.68 105.388 20.832 109.292 23.136C113.26 25.376 116.396 28.512 118.7 32.544C121.068 36.512 122.252 41.12 122.252 46.368ZM110.732 46.368C110.732 43.104 110.06 40.288 108.716 37.92C107.436 35.488 105.676 33.6 103.436 32.256C101.26 30.912 98.8275 30.24 96.1395 30.24C93.4515 30.24 90.9875 30.912 88.7475 32.256C86.5715 33.6 84.8115 35.488 83.4675 37.92C82.1875 40.288 81.5475 43.104 81.5475 46.368C81.5475 49.568 82.1875 52.384 83.4675 54.816C84.8115 57.184 86.5715 59.04 88.7475 60.384C90.9875 61.728 93.4515 62.4 96.1395 62.4C98.8275 62.4 101.26 61.728 103.436 60.384C105.676 59.04 107.436 57.184 108.716 54.816C110.06 52.384 110.732 49.568 110.732 46.368ZM166.734 0.959999C168.142 0.959999 169.518 1.152 170.862 1.536C172.206 1.92 173.326 2.56 174.222 3.456C175.118 4.288 175.566 5.408 175.566 6.816C175.566 8.416 175.086 9.696 174.126 10.656C173.23 11.552 172.174 12 170.958 12C170.382 12 169.518 11.872 168.366 11.616C167.214 11.296 166.094 11.136 165.006 11.136C163.406 11.136 162.158 11.488 161.262 12.192C160.43 12.896 159.854 13.728 159.534 14.688C159.214 15.584 159.054 16.384 159.054 17.088V66.144C159.054 67.808 158.51 69.216 157.422 70.368C156.334 71.456 154.958 72 153.294 72C151.63 72 150.254 71.456 149.166 70.368C148.078 69.216 147.534 67.808 147.534 66.144V17.184C147.534 12.64 149.134 8.8 152.334 5.664C155.534 2.528 160.334 0.959999 166.734 0.959999ZM167.79 21.6C169.326 21.6 170.606 22.112 171.63 23.136C172.654 24.096 173.166 25.344 173.166 26.88C173.166 28.416 172.654 29.696 171.63 30.72C170.606 31.68 169.326 32.16 167.79 32.16H142.35C140.814 32.16 139.534 31.68 138.51 30.72C137.486 29.696 136.974 28.416 136.974 26.88C136.974 25.344 137.486 24.096 138.51 23.136C139.534 22.112 140.814 21.6 142.35 21.6H167.79ZM208.686 0.959999C210.094 0.959999 211.47 1.152 212.814 1.536C214.158 1.92 215.278 2.56 216.174 3.456C217.07 4.288 217.518 5.408 217.518 6.816C217.518 8.416 217.038 9.696 216.078 10.656C215.182 11.552 214.126 12 212.91 12C212.334 12 211.47 11.872 210.318 11.616C209.166 11.296 208.046 11.136 206.958 11.136C205.358 11.136 204.11 11.488 203.214 12.192C202.382 12.896 201.806 13.728 201.486 14.688C201.166 15.584 201.006 16.384 201.006 17.088V66.144C201.006 67.808 200.462 69.216 199.374 70.368C198.286 71.456 196.91 72 195.246 72C193.582 72 192.206 71.456 191.118 70.368C190.03 69.216 189.486 67.808 189.486 66.144V17.184C189.486 12.64 191.086 8.8 194.286 5.664C197.486 2.528 202.286 0.959999 208.686 0.959999ZM209.742 21.6C211.278 21.6 212.558 22.112 213.582 23.136C214.606 24.096 215.118 25.344 215.118 26.88C215.118 28.416 214.606 29.696 213.582 30.72C212.558 31.68 211.278 32.16 209.742 32.16H184.302C182.766 32.16 181.486 31.68 180.462 30.72C179.438 29.696 178.926 28.416 178.926 26.88C178.926 25.344 179.438 24.096 180.462 23.136C181.486 22.112 182.766 21.6 184.302 21.6H209.742ZM256.432 72.96C250.992 72.96 246.256 71.84 242.224 69.6C238.256 67.296 235.184 64.192 233.008 60.288C230.896 56.384 229.84 51.968 229.84 47.04C229.84 41.28 230.992 36.384 233.296 32.352C235.664 28.256 238.736 25.12 242.512 22.944C246.288 20.768 250.288 19.68 254.512 19.68C257.776 19.68 260.848 20.352 263.728 21.696C266.672 23.04 269.264 24.896 271.504 27.264C273.744 29.568 275.504 32.256 276.784 35.328C278.128 38.4 278.8 41.664 278.8 45.12C278.736 46.656 278.128 47.904 276.976 48.864C275.824 49.824 274.48 50.304 272.944 50.304H236.272L233.392 40.704H268.624L266.512 42.624V40.032C266.384 38.176 265.712 36.512 264.496 35.04C263.344 33.568 261.872 32.416 260.08 31.584C258.352 30.688 256.496 30.24 254.512 30.24C252.592 30.24 250.8 30.496 249.136 31.008C247.472 31.52 246.032 32.384 244.816 33.6C243.6 34.816 242.64 36.448 241.936 38.496C241.232 40.544 240.88 43.136 240.88 46.272C240.88 49.728 241.584 52.672 242.992 55.104C244.464 57.472 246.32 59.296 248.56 60.576C250.864 61.792 253.296 62.4 255.856 62.4C258.224 62.4 260.112 62.208 261.52 61.824C262.928 61.44 264.048 60.992 264.88 60.48C265.776 59.904 266.576 59.424 267.28 59.04C268.432 58.464 269.52 58.176 270.544 58.176C271.952 58.176 273.104 58.656 274 59.616C274.96 60.576 275.44 61.696 275.44 62.976C275.44 64.704 274.544 66.272 272.752 67.68C271.088 69.088 268.752 70.336 265.744 71.424C262.736 72.448 259.632 72.96 256.432 72.96ZM321.057 72.96C315.617 72.96 310.881 71.84 306.849 69.6C302.881 67.296 299.809 64.192 297.633 60.288C295.521 56.384 294.465 51.968 294.465 47.04C294.465 41.28 295.617 36.384 297.921 32.352C300.289 28.256 303.361 25.12 307.137 22.944C310.913 20.768 314.913 19.68 319.137 19.68C322.401 19.68 325.473 20.352 328.353 21.696C331.297 23.04 333.889 24.896 336.129 27.264C338.369 29.568 340.129 32.256 341.409 35.328C342.753 38.4 343.425 41.664 343.425 45.12C343.361 46.656 342.753 47.904 341.601 48.864C340.449 49.824 339.105 50.304 337.569 50.304H300.897L298.017 40.704H333.249L331.137 42.624V40.032C331.009 38.176 330.337 36.512 329.121 35.04C327.969 33.568 326.497 32.416 324.705 31.584C322.977 30.688 321.121 30.24 319.137 30.24C317.217 30.24 315.425 30.496 313.761 31.008C312.097 31.52 310.657 32.384 309.441 33.6C308.225 34.816 307.265 36.448 306.561 38.496C305.857 40.544 305.505 43.136 305.505 46.272C305.505 49.728 306.209 52.672 307.617 55.104C309.089 57.472 310.945 59.296 313.185 60.576C315.489 61.792 317.921 62.4 320.481 62.4C322.849 62.4 324.737 62.208 326.145 61.824C327.553 61.44 328.673 60.992 329.505 60.48C330.401 59.904 331.201 59.424 331.905 59.04C333.057 58.464 334.145 58.176 335.169 58.176C336.577 58.176 337.729 58.656 338.625 59.616C339.585 60.576 340.065 61.696 340.065 62.976C340.065 64.704 339.169 66.272 337.377 67.68C335.713 69.088 333.377 70.336 330.369 71.424C327.361 72.448 324.257 72.96 321.057 72.96ZM24.784 170.96C20.24 170.96 16.144 169.968 12.496 167.984C8.912 166 6.064 163.408 3.952 160.208C1.904 157.008 0.88 153.584 0.88 149.936C0.88 146.736 1.424 143.824 2.512 141.2C3.664 138.512 5.36 136.144 7.6 134.096C9.904 132.048 12.816 130.32 16.336 128.912L23.824 136.688C19.344 137.648 16.336 139.12 14.8 141.104C13.328 143.024 12.592 145.392 12.592 148.208C12.592 150.128 13.072 152.016 14.032 153.872C14.992 155.664 16.56 157.168 18.736 158.384C20.912 159.536 23.824 160.112 27.472 160.112C30.48 160.112 33.168 159.44 35.536 158.096C37.968 156.688 40.048 154.864 41.776 152.624C43.568 150.32 45.008 147.792 46.096 145.04C47.248 142.224 48.016 139.376 48.4 136.496C48.528 135.472 48.912 134.672 49.552 134.096C50.256 133.52 51.408 133.232 53.008 133.232C54.672 133.232 55.984 133.904 56.944 135.248C57.904 136.592 58.256 138.16 58 139.952C57.424 143.792 56.304 147.568 54.64 151.28C53.04 154.928 50.864 158.256 48.112 161.264C45.424 164.208 42.128 166.576 38.224 168.368C34.384 170.096 29.904 170.96 24.784 170.96ZM58.96 170.192C58.192 170.192 57.52 170.096 56.944 169.904C56.432 169.712 56.016 169.488 55.696 169.232C51.088 165.264 46.864 161.616 43.024 158.288C39.248 154.896 35.76 151.664 32.56 148.592C29.36 145.52 26.352 142.384 23.536 139.184C21.296 136.624 19.248 134.32 17.392 132.272C15.536 130.224 14.032 128.24 12.88 126.32C11.792 124.336 11.248 122.16 11.248 119.792C11.248 116.656 12.08 113.744 13.744 111.056C15.472 108.304 17.904 106.096 21.04 104.432C24.176 102.704 27.888 101.84 32.176 101.84C36.592 101.84 40.56 102.576 44.08 104.048C47.664 105.52 50.064 107.472 51.28 109.904C51.344 109.968 51.504 110.384 51.76 111.152C52.016 111.856 52.144 112.688 52.144 113.648C52.144 114.864 51.696 115.92 50.8 116.816C49.904 117.712 48.688 118.16 47.152 118.16C46.128 118.16 45.328 117.968 44.752 117.584C44.176 117.2 43.728 116.816 43.408 116.432C42 114.576 40.368 113.296 38.512 112.592C36.72 111.824 34.608 111.44 32.176 111.44C29.296 111.44 27.088 112.208 25.552 113.744C24.08 115.28 23.344 117.104 23.344 119.216C23.344 121.2 24.048 123.184 25.456 125.168C26.864 127.088 28.464 128.912 30.256 130.64C32.112 132.368 33.648 133.904 34.864 135.248C36.848 137.36 39.056 139.632 41.488 142.064C43.984 144.432 46.48 146.768 48.976 149.072C51.472 151.312 53.776 153.424 55.888 155.408C58.064 157.328 59.824 158.928 61.168 160.208C62 160.976 62.608 161.744 62.992 162.512C63.44 163.28 63.664 164.208 63.664 165.296C63.664 166.128 63.28 167.152 62.512 168.368C61.808 169.584 60.624 170.192 58.96 170.192ZM102.863 170.96C98.3825 170.96 94.3505 170.416 90.7665 169.328C87.1825 168.176 83.7585 166.192 80.4945 163.376C79.6625 162.672 79.0225 161.872 78.5745 160.976C78.1265 160.08 77.9025 159.184 77.9025 158.288C77.9025 156.816 78.4145 155.536 79.4385 154.448C80.5265 153.296 81.8705 152.72 83.4705 152.72C84.6865 152.72 85.7745 153.104 86.7345 153.872C89.1665 155.856 91.5665 157.36 93.9345 158.384C96.3665 159.408 99.3425 159.92 102.863 159.92C105.231 159.92 107.407 159.568 109.391 158.864C111.375 158.096 112.975 157.104 114.191 155.888C115.407 154.608 116.015 153.168 116.015 151.568C116.015 149.648 115.439 148.016 114.287 146.672C113.135 145.328 111.375 144.208 109.007 143.312C106.639 142.352 103.631 141.616 99.9825 141.104C96.5265 140.592 93.4865 139.824 90.8625 138.8C88.2385 137.712 86.0305 136.368 84.2385 134.768C82.5105 133.104 81.1985 131.184 80.3025 129.008C79.4065 126.768 78.9585 124.272 78.9585 121.52C78.9585 117.36 80.0145 113.808 82.1265 110.864C84.3025 107.92 87.2145 105.68 90.8625 104.144C94.5105 102.608 98.5425 101.84 102.959 101.84C107.119 101.84 110.959 102.48 114.479 103.76C118.063 104.976 120.975 106.544 123.215 108.464C125.071 109.936 125.999 111.632 125.999 113.552C125.999 114.96 125.455 116.24 124.367 117.392C123.279 118.544 121.999 119.12 120.527 119.12C119.567 119.12 118.703 118.832 117.935 118.256C116.911 117.36 115.535 116.528 113.807 115.76C112.079 114.928 110.255 114.256 108.335 113.744C106.415 113.168 104.623 112.88 102.959 112.88C100.207 112.88 97.8705 113.232 95.9505 113.936C94.0945 114.64 92.6865 115.6 91.7265 116.816C90.7665 118.032 90.2865 119.44 90.2865 121.04C90.2865 122.96 90.8305 124.56 91.9185 125.84C93.0705 127.056 94.7025 128.048 96.8145 128.816C98.9265 129.52 101.455 130.16 104.399 130.736C108.239 131.44 111.599 132.272 114.479 133.232C117.423 134.192 119.855 135.44 121.775 136.976C123.695 138.448 125.135 140.336 126.095 142.64C127.055 144.88 127.535 147.632 127.535 150.896C127.535 155.056 126.383 158.64 124.079 161.648C121.775 164.656 118.735 166.96 114.959 168.56C111.247 170.16 107.215 170.96 102.863 170.96ZM172.56 117.68C177.168 117.68 180.656 118.672 183.024 120.656C185.456 122.64 187.12 125.296 188.016 128.624C188.912 131.888 189.36 135.536 189.36 139.568V164.144C189.36 165.808 188.816 167.216 187.728 168.368C186.64 169.456 185.264 170 183.6 170C181.936 170 180.56 169.456 179.472 168.368C178.384 167.216 177.84 165.808 177.84 164.144V139.568C177.84 137.456 177.584 135.568 177.072 133.904C176.56 132.176 175.632 130.8 174.288 129.776C172.944 128.752 171.024 128.24 168.528 128.24C166.096 128.24 164.016 128.752 162.288 129.776C160.56 130.8 159.248 132.176 158.352 133.904C157.52 135.568 157.104 137.456 157.104 139.568V164.144C157.104 165.808 156.56 167.216 155.472 168.368C154.384 169.456 153.008 170 151.344 170C149.68 170 148.304 169.456 147.216 168.368C146.128 167.216 145.584 165.808 145.584 164.144V104.816C145.584 103.152 146.128 101.776 147.216 100.688C148.304 99.536 149.68 98.96 151.344 98.96C153.008 98.96 154.384 99.536 155.472 100.688C156.56 101.776 157.104 103.152 157.104 104.816V128.624L155.664 128.336C156.24 127.248 157.04 126.096 158.064 124.88C159.088 123.6 160.336 122.416 161.808 121.328C163.28 120.24 164.912 119.376 166.704 118.736C168.496 118.032 170.448 117.68 172.56 117.68ZM259.658 144.368C259.658 149.616 258.474 154.256 256.106 158.288C253.802 162.256 250.666 165.36 246.698 167.6C242.794 169.84 238.41 170.96 233.546 170.96C228.682 170.96 224.266 169.84 220.298 167.6C216.394 165.36 213.258 162.256 210.89 158.288C208.586 154.256 207.434 149.616 207.434 144.368C207.434 139.12 208.586 134.512 210.89 130.544C213.258 126.512 216.394 123.376 220.298 121.136C224.266 118.832 228.682 117.68 233.546 117.68C238.41 117.68 242.794 118.832 246.698 121.136C250.666 123.376 253.802 126.512 256.106 130.544C258.474 134.512 259.658 139.12 259.658 144.368ZM248.138 144.368C248.138 141.104 247.466 138.288 246.122 135.92C244.842 133.488 243.082 131.6 240.842 130.256C238.666 128.912 236.234 128.24 233.546 128.24C230.858 128.24 228.394 128.912 226.154 130.256C223.978 131.6 222.218 133.488 220.874 135.92C219.594 138.288 218.954 141.104 218.954 144.368C218.954 147.568 219.594 150.384 220.874 152.816C222.218 155.184 223.978 157.04 226.154 158.384C228.394 159.728 230.858 160.4 233.546 160.4C236.234 160.4 238.666 159.728 240.842 158.384C243.082 157.04 244.842 155.184 246.122 152.816C247.466 150.384 248.138 147.568 248.138 144.368ZM304.332 117.68C308.812 117.68 312.812 118.832 316.332 121.136C319.916 123.376 322.732 126.48 324.78 130.448C326.892 134.416 327.948 139.024 327.948 144.272C327.948 149.52 326.892 154.16 324.78 158.192C322.732 162.16 319.948 165.296 316.428 167.6C312.972 169.84 309.068 170.96 304.716 170.96C302.156 170.96 299.756 170.544 297.516 169.712C295.276 168.88 293.292 167.824 291.564 166.544C289.9 165.264 288.588 163.984 287.628 162.704C286.732 161.36 286.284 160.24 286.284 159.344L289.26 158.096V183.344C289.26 185.008 288.716 186.384 287.628 187.472C286.54 188.624 285.164 189.2 283.5 189.2C281.836 189.2 280.46 188.656 279.372 187.568C278.284 186.48 277.74 185.072 277.74 183.344V124.496C277.74 122.832 278.284 121.456 279.372 120.368C280.46 119.216 281.836 118.64 283.5 118.64C285.164 118.64 286.54 119.216 287.628 120.368C288.716 121.456 289.26 122.832 289.26 124.496V129.2L287.628 128.336C287.628 127.504 288.076 126.512 288.972 125.36C289.868 124.144 291.084 122.96 292.62 121.808C294.156 120.592 295.916 119.6 297.9 118.832C299.948 118.064 302.092 117.68 304.332 117.68ZM302.892 128.24C300.076 128.24 297.612 128.944 295.5 130.352C293.388 131.76 291.724 133.68 290.508 136.112C289.356 138.48 288.78 141.2 288.78 144.272C288.78 147.28 289.356 150.032 290.508 152.528C291.724 154.96 293.388 156.88 295.5 158.288C297.612 159.696 300.076 160.4 302.892 160.4C305.708 160.4 308.14 159.696 310.188 158.288C312.3 156.88 313.932 154.96 315.084 152.528C316.3 150.032 316.908 147.28 316.908 144.272C316.908 141.2 316.3 138.48 315.084 136.112C313.932 133.68 312.3 131.76 310.188 130.352C308.14 128.944 305.708 128.24 302.892 128.24ZM17.2 5462.48C15.6 5462.48 14.192 5461.97 12.976 5460.94C11.824 5459.86 11.248 5458.51 11.248 5456.91C11.248 5456.02 11.44 5455.15 11.824 5454.32L35.344 5403.34L36.4 5405.94H8.656C7.12 5405.94 5.84 5405.42 4.816 5404.4C3.792 5403.38 3.28 5402.1 3.28 5400.56C3.28 5399.09 3.792 5397.87 4.816 5396.91C5.84 5395.89 7.12 5395.38 8.656 5395.38H42.064C43.728 5395.38 45.168 5395.92 46.384 5397.01C47.664 5398.03 48.304 5399.38 48.304 5401.04C48.304 5401.87 48.112 5402.74 47.728 5403.63L22.48 5458.83C22.032 5459.98 21.296 5460.88 20.272 5461.52C19.312 5462.16 18.288 5462.48 17.2 5462.48Z" fill="#004876"/>
</svg>
